HIERARCHY
ROOT Root
{
  OFFSET 0.0 0.0 0.0
  CHANNELS 6 Xposition Yposition Zposition Zrotation Yrotation Xrotation
  JOINT Hips
  {
    OFFSET 0.0 100.0 0.0
    CHANNELS 6 Xposition Yposition Zposition Zrotation Yrotation Xrotation
    JOINT Spine1
    {
      OFFSET -0.013727 5.003763 -0.053727
      CHANNELS 3 Zrotation Yrotation Xrotation
      JOINT Spine2
      {
        OFFSET -0.0 7.125301 -0.029825
        CHANNELS 3 Zrotation Yrotation Xrotation
        JOINT Chest
        {
          OFFSET -1e-06 7.550063 -0.815971
          CHANNELS 3 Zrotation Yrotation Xrotation
          JOINT Neck1
          {
            OFFSET -0.181677 26.311295 -0.553348
            CHANNELS 3 Zrotation Yrotation Xrotation
            JOINT Neck2
            {
              OFFSET -3e-06 7.709397 2.302585
              CHANNELS 3 Zrotation Yrotation Xrotation
              JOINT Head
              {
                OFFSET -5e-06 6.128916 1.953709
                CHANNELS 3 Zrotation Yrotation Xrotation
                JOINT HeadEnd
                {
                  OFFSET 0.003598 16.065403 -1.835379
                  CHANNELS 3 Zrotation Yrotation Xrotation
                }
                JOINT Jaw
                {
                  OFFSET 0.002637 0.475592 3.094941
                  CHANNELS 3 Zrotation Yrotation Xrotation
                }
                JOINT LeftEye
                {
                  OFFSET 3.206381 5.380205 7.586883
                  CHANNELS 3 Zrotation Yrotation Xrotation
                }
                JOINT RightEye
                {
                  OFFSET -3.22244 5.361869 7.558234
                  CHANNELS 3 Zrotation Yrotation Xrotation
                }
              }
            }
          }
          JOINT LeftShoulder
          {
            OFFSET 1.621652 23.237164 5.113413
            CHANNELS 3 Zrotation Yrotation Xrotation
            JOINT LeftArm
            {
              OFFSET 14.919846 2e-06 -5.502326
              CHANNELS 3 Zrotation Yrotation Xrotation
              JOINT LeftForeArm
              {
                OFFSET 28.739307 0.0 -0.002588
                CHANNELS 3 Zrotation Yrotation Xrotation
                JOINT LeftHand
                {
                  OFFSET 27.093981 -1e-06 0.002609
                  CHANNELS 3 Zrotation Yrotation Xrotation
                  JOINT LeftHandThumb1
                  {
                    OFFSET 2.276482 -1.392045 3.191413
                    CHANNELS 3 Zrotation Yrotation Xrotation
                    JOINT LeftHandThumb2
                    {
                      OFFSET 4.012836 -1.828127 1.641654
                      CHANNELS 3 Zrotation Yrotation Xrotation
                      JOINT LeftHandThumb3
                      {
                        OFFSET 2.798515 0.0 -3e-06
                        CHANNELS 3 Zrotation Yrotation Xrotation
                        JOINT LeftHandThumbEnd
                        {
                          OFFSET 3.180793 -4e-06 4e-06
                          CHANNELS 3 Zrotation Yrotation Xrotation
                        }
                      }
                    }
                  }
                  JOINT LeftHandIndex1
                  {
                    OFFSET 3.247555 -0.531998 2.296169
                    CHANNELS 3 Zrotation Yrotation Xrotation
                    JOINT LeftHandIndex2
                    {
                      OFFSET 6.364578 0.01206 0.1786
                      CHANNELS 3 Zrotation Yrotation Xrotation
                      JOINT LeftHandIndex3
                      {
                        OFFSET 3.662364 0.0 0.0
                        CHANNELS 3 Zrotation Yrotation Xrotation
                        JOINT LeftHandIndex4
                        {
                          OFFSET 2.329242 4e-06 4e-06
                          CHANNELS 3 Zrotation Yrotation Xrotation
                          JOINT LeftHandIndexEnd
                          {
                            OFFSET 2.759615 -0.180537 -0.113024
                            CHANNELS 3 Zrotation Yrotation Xrotation
                          }
                        }
                      }
                    }
                  }
                  JOINT LeftHandMiddle1
                  {
                    OFFSET 3.163495 0.240981 1.000332
                    CHANNELS 3 Zrotation Yrotation Xrotation
                    JOINT LeftHandMiddle2
                    {
                      OFFSET 6.19078 -0.259278 -1.002548
                      CHANNELS 3 Zrotation Yrotation Xrotation
                      JOINT LeftHandMiddle3
                      {
                        OFFSET 4.35652 -4e-06 -1e-06
                        CHANNELS 3 Zrotation Yrotation Xrotation
                        JOINT LeftHandMiddle4
                        {
                          OFFSET 2.996877 -8e-06 0.0
                          CHANNELS 3 Zrotation Yrotation Xrotation
                          JOINT LeftHandMiddleEnd
                          {
                            OFFSET 2.304287 -0.294569 -0.031741
                            CHANNELS 3 Zrotation Yrotation Xrotation
                          }
                        }
                      }
                    }
                  }
                  JOINT LeftHandRing1
                  {
                    OFFSET 2.882643 -0.053652 -0.322543
                    CHANNELS 3 Zrotation Yrotation Xrotation
                    JOINT LeftHandRing2
                    {
                      OFFSET 5.854541 -0.486202 -1.373841
                      CHANNELS 3 Zrotation Yrotation Xrotation
                      JOINT LeftHandRing3
                      {
                        OFFSET 4.350578 0.0 3e-06
                        CHANNELS 3 Zrotation Yrotation Xrotation
                        JOINT LeftHandRing4
                        {
                          OFFSET 2.651321 7e-06 2e-06
                          CHANNELS 3 Zrotation Yrotation Xrotation
                          JOINT LeftHandRingEnd
                          {
                            OFFSET 1.936105 0.077687 -7.1e-05
                            CHANNELS 3 Zrotation Yrotation Xrotation
                          }
                        }
                      }
                    }
                  }
                  JOINT LeftHandPinky1
                  {
                    OFFSET 2.8655 -0.310005 -1.600378
                    CHANNELS 3 Zrotation Yrotation Xrotation
                    JOINT LeftHandPinky2
                    {
                      OFFSET 5.087849 -1.331141 -1.77123
                      CHANNELS 3 Zrotation Yrotation Xrotation
                      JOINT LeftHandPinky3
                      {
                        OFFSET 3.070974 4e-06 0.0
                        CHANNELS 3 Zrotation Yrotation Xrotation
                        JOINT LeftHandPinky4
                        {
                          OFFSET 1.549672 0.0 1e-06
                          CHANNELS 3 Zrotation Yrotation Xrotation
                          JOINT LeftHandPinkyEnd
                          {
                            OFFSET 1.944893 -0.157802 0.057219
                            CHANNELS 3 Zrotation Yrotation Xrotation
                          }
                        }
                      }
                    }
                  }
                }
              }
            }
          }
          JOINT RightShoulder
          {
            OFFSET -1.380118 23.180309 5.214158
            CHANNELS 3 Zrotation Yrotation Xrotation
            JOINT RightArm
            {
              OFFSET -15.037196 1.2e-05 -5.545604
              CHANNELS 3 Zrotation Yrotation Xrotation
              JOINT RightForeArm
              {
                OFFSET -28.736639 2e-06 -0.002597
                CHANNELS 3 Zrotation Yrotation Xrotation
                JOINT RightHand
                {
                  OFFSET -27.133619 -0.0 0.002613
                  CHANNELS 3 Zrotation Yrotation Xrotation
                  JOINT RightHandThumb1
                  {
                    OFFSET -2.274032 -1.383988 3.163127
                    CHANNELS 3 Zrotation Yrotation Xrotation
                    JOINT RightHandThumb2
                    {
                      OFFSET -4.011429 -1.827466 1.640914
                      CHANNELS 3 Zrotation Yrotation Xrotation
                      JOINT RightHandThumb3
                      {
                        OFFSET -2.794935 -4e-06 -3e-06
                        CHANNELS 3 Zrotation Yrotation Xrotation
                        JOINT RightHandThumbEnd
                        {
                          OFFSET -3.183852 4e-06 1e-06
                          CHANNELS 3 Zrotation Yrotation Xrotation
                        }
                      }
                    }
                  }
                  JOINT RightHandIndex1
                  {
                    OFFSET -3.253266 -0.520057 2.282866
                    CHANNELS 3 Zrotation Yrotation Xrotation
                    JOINT RightHandIndex2
                    {
                      OFFSET -6.341917 0.012471 0.178266
                      CHANNELS 3 Zrotation Yrotation Xrotation
                      JOINT RightHandIndex3
                      {
                        OFFSET -3.654871 -8e-06 -0.0
                        CHANNELS 3 Zrotation Yrotation Xrotation
                        JOINT RightHandIndex4
                        {
                          OFFSET -2.327586 0.0 1e-06
                          CHANNELS 3 Zrotation Yrotation Xrotation
                          JOINT RightHandIndexEnd
                          {
                            OFFSET -2.76179 -0.180656 -0.113078
                            CHANNELS 3 Zrotation Yrotation Xrotation
                          }
                        }
                      }
                    }
                  }
                  JOINT RightHandMiddle1
                  {
                    OFFSET -3.168106 0.246593 1.00103
                    CHANNELS 3 Zrotation Yrotation Xrotation
                    JOINT RightHandMiddle2
                    {
                      OFFSET -6.180828 -0.258836 -1.000895
                      CHANNELS 3 Zrotation Yrotation Xrotation
                      JOINT RightHandMiddle3
                      {
                        OFFSET -4.348901 0.0 -0.0
                        CHANNELS 3 Zrotation Yrotation Xrotation
                        JOINT RightHandMiddle4
                        {
                          OFFSET -3.00024 -4e-06 -2e-06
                          CHANNELS 3 Zrotation Yrotation Xrotation
                          JOINT RightHandMiddleEnd
                          {
                            OFFSET -2.30252 -0.29437 -0.031706
                            CHANNELS 3 Zrotation Yrotation Xrotation
                          }
                        }
                      }
                    }
                  }
                  JOINT RightHandRing1
                  {
                    OFFSET -2.88569 -0.067952 -0.308858
                    CHANNELS 3 Zrotation Yrotation Xrotation
                    JOINT RightHandRing2
                    {
                      OFFSET -5.854198 -0.48613 -1.373731
                      CHANNELS 3 Zrotation Yrotation Xrotation
                      JOINT RightHandRing3
                      {
                        OFFSET -4.33881 -4e-06 -0.0
                        CHANNELS 3 Zrotation Yrotation Xrotation
                        JOINT RightHandRing4
                        {
                          OFFSET -2.654903 -4e-06 4e-06
                          CHANNELS 3 Zrotation Yrotation Xrotation
                          JOINT RightHandRingEnd
                          {
                            OFFSET -1.933568 0.077527 -5.2e-05
                            CHANNELS 3 Zrotation Yrotation Xrotation
                          }
                        }
                      }
                    }
                  }
                  JOINT RightHandPinky1
                  {
                    OFFSET -2.866425 -0.342796 -1.584145
                    CHANNELS 3 Zrotation Yrotation Xrotation
                    JOINT RightHandPinky2
                    {
                      OFFSET -5.091371 -1.332055 -1.772385
                      CHANNELS 3 Zrotation Yrotation Xrotation
                      JOINT RightHandPinky3
                      {
                        OFFSET -3.062664 -4e-06 1e-06
                        CHANNELS 3 Zrotation Yrotation Xrotation
                        JOINT RightHandPinky4
                        {
                          OFFSET -1.546529 4e-06 -2e-06
                          CHANNELS 3 Zrotation Yrotation Xrotation
                          JOINT RightHandPinkyEnd
                          {
                            OFFSET -1.945119 -0.157718 0.057211
                            CHANNELS 3 Zrotation Yrotation Xrotation
                          }
                        }
                      }
                    }
                  }
                }
              }
            }
          }
        }
      }
    }
    JOINT LeftLeg
    {
      OFFSET 10.043214 -8.434526 2.595655
      CHANNELS 3 Zrotation Yrotation Xrotation
      JOINT LeftShin
      {
        OFFSET -1e-06 -43.221752 -0.802913
        CHANNELS 3 Zrotation Yrotation Xrotation
        JOINT LeftFoot
        {
          OFFSET 1e-06 -42.155094 -3.481523
          CHANNELS 3 Zrotation Yrotation Xrotation
          JOINT LeftToeBase
          {
            OFFSET 0.0 -5.059472 13.231529
            CHANNELS 3 Zrotation Yrotation Xrotation
            JOINT LeftToeEnd
            {
              OFFSET -0.009607 -1.647619 6.513017
              CHANNELS 3 Zrotation Yrotation Xrotation
            }
          }
        }
      }
    }
    JOINT RightLeg
    {
      OFFSET -10.047278 -8.29526 2.620317
      CHANNELS 3 Zrotation Yrotation Xrotation
      JOINT RightShin
      {
        OFFSET 1e-06 -43.362206 -0.805556
        CHANNELS 3 Zrotation Yrotation Xrotation
        JOINT RightFoot
        {
          OFFSET 2e-06 -42.117393 -3.478398
          CHANNELS 3 Zrotation Yrotation Xrotation
          JOINT RightToeBase
          {
            OFFSET -0.0 -5.079609 13.284196
            CHANNELS 3 Zrotation Yrotation Xrotation
            JOINT RightToeEnd
            {
              OFFSET 0.009532 -1.634378 6.460591
              CHANNELS 3 Zrotation Yrotation Xrotation
            }
          }
        }
      }
    }
  }
}
MOTION
Frames: 5
Frame Time: 0.03333333333333333
0.0 0.0 0.0 0.0 -0.0 0.0 -1.155804 95.602234 0.73345 2.483268 -1.884768 -14.32086 1.356896 -0.098809 2.048639 0.238353 -0.365334 -3.734941 5.724546 -1.538077 3.871585 1.614355 -0.077037 28.723614 0.046643 1.3237 -3.461196 2.512778 -1.412103 5.710056 7.8e-05 -2.2e-05 5e-06 0.052532 -0.045969 0.050232 0.739502 -3.776831 -10.5905 -0.620936 3.679233 -10.554994 -2.18868 -2.291859 4.070242 9.347835 -51.567856 11.077398 -171.389023 -89.42495 172.469864 30.07765 4.118188 21.445812 -5.882108 9.86129 0.702589 -10.936879 -0.360577 7.156214 4e-06 8.774828 -1e-06 -16.602034 17.385815 5.244038 -1.844034 2.498506 -2.507281 -10.163606 4.678944 4.62111 -20.976038 -6e-06 5e-06 -21.226299 2.451695 -3.593999 0.0 -6e-06 0.0 -1.362683 2.240801 -0.746327 -21.334929 0.584904 3.008329 -13.821223 -4e-06 5e-06 -23.887184 -0.249081 -0.839477 -61.791519 2.702982 -1.196252 -0.294025 1.679688 0.833257 -14.218219 0.093212 1.300584 -34.21207 -0.287568 0.967177 -20.033226 0.964537 1.212849 1e-06 2e-06 -0.0 -3.44039 0.788233 0.501654 -15.928196 -3.167314 2.999711 -6.338832 -1e-06 2e-06 -18.123457 3.648181 -4.905672 -4e-06 -1e-06 -2e-06 8.612808 13.615428 6.834845 46.977711 81.705017 50.779861 -0.300961 55.704586 -0.828218 -22.768661 -41.394463 40.171234 2.243542 -5.255038 -3.18016 14.282891 -0.826594 6.952507 -3e-06 -12.690607 1e-06 16.169365 -18.176815 2.888738 1.665667 -1.955922 -2.8783 4.727798 -4.170588 4.993927 11.020526 3e-06 -1e-06 12.109052 -3.735717 -2.866785 -0.0 -0.0 0.0 1.291985 -1.928549 -1.49809 14.800125 0.567468 3.86561 14.242568 -1.341735 -6.660658 19.631962 0.143926 -0.648244 49.684116 -1.161905 -6.541549 0.353029 -1.511151 -0.031939 20.22279 3.684309 2.316632 18.787273 4e-06 1e-06 10.751625 -0.47987 1.397907 1e-06 -0.0 1e-06 3.273806 0.305946 -0.580111 21.486816 11.830377 2.266135 8.162928 1e-06 1e-06 18.399082 -3.798985 -4.940574 3e-06 1e-06 -1e-06 20.252338 26.789234 8.277151 -0.304013 -0.44147 20.502607 -15.479519 13.935392 -5.78869 1.653227 -2.078652 -1.196169 -0.0 -1e-06 2e-06 -21.82225 -14.275099 6.268459 0.255355 0.507811 23.301447 17.332273 -11.070856 -10.310686 -1.445433 0.732373 -1.797534 -0.0 0.0 -1e-06 
0.0 0.0 0.0 0.0 -0.0 0.0 -1.105294 95.598717 0.718962 2.44873 -1.833848 -14.340747 1.383222 -0.120462 2.044458 0.240667 -0.345063 -3.750944 5.711022 -1.52804 3.888007 1.551622 0.058669 28.834515 0.010426 1.299028 -3.469603 2.398376 -1.445624 5.542357 7.7e-05 -2.2e-05 5e-06 0.051697 -0.048739 0.05084 0.741489 -3.780706 -10.586213 -0.624483 3.677067 -10.554076 -2.110149 -2.216175 4.032241 9.229531 -51.566475 10.857574 -166.444183 -89.252182 167.491302 29.881241 4.140906 21.346949 -5.882108 9.861284 0.702588 -10.936872 -0.360577 7.156206 0.0 8.774824 -1e-06 -16.635191 17.34173 5.179036 -1.844032 2.498504 -2.507279 -10.163603 4.678944 4.621109 -20.97603 -5e-06 2e-06 -21.226292 2.451697 -3.594002 0.0 -6e-06 0.0 -1.362683 2.240799 -0.746323 -21.334917 0.584908 3.008323 -13.821218 -2e-06 1e-06 -23.887178 -0.249084 -0.839487 -61.728661 2.685457 -1.18049 -0.294024 1.679686 0.833256 -14.218209 0.093213 1.300579 -34.212055 -0.287566 0.967168 -20.033216 0.964534 1.212844 1e-06 1e-06 1e-06 -3.440388 0.788233 0.501655 -15.928189 -3.16731 2.999707 -6.338829 -2e-06 1e-06 -18.123453 3.648179 -4.905674 -4e-06 0.0 -2e-06 8.613953 13.607743 6.816716 47.068642 81.653816 51.021427 -0.443799 55.62133 -0.926926 -22.449572 -41.233421 40.081581 2.243542 -5.255036 -3.180157 14.28289 -0.826593 6.952501 -4e-06 -12.690601 0.0 16.188742 -18.174984 2.88889 1.665665 -1.955922 -2.878298 4.727797 -4.170586 4.993923 11.020526 3e-06 -2e-06 12.109052 -3.735714 -2.866784 -0.0 0.0 0.0 1.291985 -1.928549 -1.498089 14.800129 0.567469 3.865606 14.242574 -1.341735 -6.660658 19.631969 0.143928 -0.648245 49.654583 -1.158036 -6.538317 0.35303 -1.511151 -0.03194 20.22279 3.68431 2.316628 18.787275 7e-06 -2e-06 10.751628 -0.479867 1.397905 1e-06 0.0 0.0 3.273807 0.305948 -0.580111 21.486814 11.830376 2.266131 8.162927 3e-06 -0.0 18.39908 -3.798984 -4.940575 3e-06 0.0 -1e-06 20.290379 26.870211 8.22589 -0.306895 -0.456133 20.630665 -15.418919 13.819473 -5.820881 1.657796 -2.06392 -1.188224 -0.0 -0.0 2e-06 -21.820232 -14.264384 6.357771 0.255715 0.51308 23.180477 17.338465 -11.17555 -10.277427 -1.445008 0.748132 -1.77979 0.0 0.0 -1e-06 
0.0 0.0 0.0 0.0 -0.0 0.0 -1.053266 95.605362 0.703293 2.405408 -1.803121 -14.368463 1.412096 -0.137562 2.042477 0.241645 -0.31322 -3.778048 5.715127 -1.513269 3.91896 1.476334 0.206995 28.957247 -0.01126 1.28392 -3.485787 2.299089 -1.447685 5.406814 7.7e-05 -2.2e-05 6e-06 0.052403 -0.050626 0.051859 0.741652 -3.782851 -10.57774 -0.623069 3.674592 -10.547055 -2.010824 -2.162474 4.021014 9.274351 -51.544724 10.59003 -168.013992 -89.054985 169.074463 29.693489 4.25845 21.181437 -5.882109 9.861287 0.70259 -10.936877 -0.360577 7.156209 3e-06 8.774829 -2e-06 -16.640442 17.326368 5.165796 -1.844033 2.498505 -2.50728 -10.163604 4.678944 4.621111 -20.976032 -8e-06 3e-06 -21.226295 2.451693 -3.593998 0.0 -6e-06 -0.0 -1.362682 2.2408 -0.746325 -21.334925 0.584905 3.008325 -13.821221 -4e-06 2e-06 -23.887182 -0.249081 -0.83948 -61.644199 2.679632 -1.200042 -0.294024 1.679688 0.833257 -14.218216 0.093212 1.30058 -34.212067 -0.287566 0.967173 -20.033222 0.964535 1.212847 1e-06 1e-06 1e-06 -3.440389 0.788234 0.501654 -15.928192 -3.167314 2.999709 -6.338829 -3e-06 1e-06 -18.123457 3.648179 -4.905671 -4e-06 -1e-06 -2e-06 8.607611 13.571976 6.809718 47.378719 81.640175 51.518593 -0.766528 55.50079 -1.248499 -22.21348 -41.0933 40.374554 2.243541 -5.255037 -3.18016 14.282896 -0.826592 6.952507 -5e-06 -12.690606 -1e-06 16.177559 -18.197001 2.937629 1.665665 -1.955921 -2.878299 4.7278 -4.170586 4.993926 11.020529 4e-06 -1e-06 12.109056 -3.735714 -2.866784 -0.0 0.0 0.0 1.291987 -1.928549 -1.49809 14.800136 0.567471 3.865611 14.242577 -1.341735 -6.660661 19.631975 0.143928 -0.648243 49.648685 -1.150158 -6.528236 0.353029 -1.511151 -0.03194 20.222801 3.684314 2.316634 18.787281 6e-06 3e-06 10.751633 -0.479868 1.397909 1e-06 -0.0 0.0 3.273808 0.305948 -0.580111 21.486824 11.830379 2.266137 8.16293 2e-06 2e-06 18.399088 -3.798986 -4.940574 3e-06 0.0 -1e-06 20.334801 26.930279 8.215471 -0.314231 -0.479903 20.697796 -15.370183 13.787938 -5.840433 1.65999 -2.044098 -1.182733 -0.0 -1e-06 2e-06 -21.806074 -14.242927 6.446996 0.248617 0.504775 23.058083 17.346157 -11.262045 -10.186114 -1.446108 0.760784 -1.759181 0.0 0.0 -1e-06 
0.0 0.0 0.0 0.0 -0.0 0.0 -1.000878 95.612961 0.683184 2.363998 -1.785798 -14.397078 1.434037 -0.14578 2.042306 0.240053 -0.28843 -3.802844 5.732678 -1.478526 3.941057 1.373877 0.354136 29.113873 -0.013384 1.286325 -3.497429 2.230079 -1.404294 5.281362 7.8e-05 -2.3e-05 5e-06 0.055496 -0.05316 0.056016 0.742828 -3.786052 -10.570192 -0.617934 3.671779 -10.540053 -1.882356 -2.139739 4.043774 9.438539 -51.518955 10.395601 -173.772232 -88.836685 174.950912 29.451319 4.431199 21.002783 -5.882108 9.861284 0.702588 -10.936873 -0.360577 7.156205 1e-06 8.774828 -2e-06 -16.632032 17.320646 5.193035 -1.844033 2.498506 -2.507278 -10.163602 4.678944 4.621108 -20.976032 -8e-06 1e-06 -21.226295 2.451691 -3.594002 0.0 -6e-06 0.0 -1.362682 2.240799 -0.746322 -21.334921 0.584905 3.008317 -13.821221 -5e-06 2e-06 -23.887182 -0.249084 -0.839484 -61.585903 2.673092 -1.222959 -0.294025 1.679689 0.833257 -14.218212 0.093212 1.300579 -34.212063 -0.287572 0.967169 -20.033216 0.964532 1.212844 0.0 1e-06 0.0 -3.440388 0.788233 0.501656 -15.928191 -3.167312 2.999705 -6.338829 -2e-06 0.0 -18.123455 3.648179 -4.905672 -4e-06 0.0 -2e-06 8.574075 13.509773 6.776498 48.08997 81.626022 52.325001 -1.044586 55.376404 -1.550501 -22.107153 -40.98558 40.876202 2.243541 -5.255036 -3.180158 14.282896 -0.826593 6.952505 -5e-06 -12.690603 0.0 16.149208 -18.222813 2.999965 1.665668 -1.955922 -2.8783 4.727801 -4.170587 4.993925 11.020534 5e-06 -1e-06 12.109057 -3.735713 -2.866783 0.0 0.0 0.0 1.291988 -1.92855 -1.49809 14.800138 0.56747 3.865609 14.242579 -1.341733 -6.660657 19.631979 0.143928 -0.648243 49.621025 -1.155298 -6.527676 0.353029 -1.511151 -0.03194 20.222801 3.684313 2.316631 18.787283 7e-06 1e-06 10.751633 -0.479866 1.397907 1e-06 0.0 0.0 3.273808 0.305947 -0.580111 21.486828 11.830379 2.266134 8.162931 3e-06 0.0 18.399092 -3.79898 -4.940574 3e-06 1e-06 -1e-06 20.363274 26.959373 8.20472 -0.316714 -0.495754 20.756739 -15.337759 13.801473 -5.867123 1.659631 -2.030313 -1.163247 -0.0 -1e-06 2e-06 -21.800167 -14.238283 6.519043 0.240519 0.491131 22.9587 17.353643 -11.312378 -10.075309 -1.448874 0.76984 -1.731218 -0.0 0.0 -1e-06 
0.0 0.0 0.0 0.0 -0.0 0.0 -0.944053 95.612953 0.651627 2.337841 -1.780749 -14.419951 1.44908 -0.151706 2.046887 0.236997 -0.284641 -3.810909 5.750633 -1.421337 3.935061 1.254432 0.497575 29.313608 0.004639 1.313165 -3.492003 2.197102 -1.319958 5.158563 7.7e-05 -2.2e-05 7e-06 0.060583 -0.055993 0.06484 0.747912 -3.790859 -10.567598 -0.612879 3.670103 -10.539658 -1.755287 -2.110725 4.081094 9.648989 -51.534447 10.38843 178.143585 -88.607735 -176.866516 29.199814 4.543101 20.939474 -5.882102 9.861281 0.702592 -10.936868 -0.360574 7.156203 1e-06 8.774824 -1e-06 -16.597647 17.329897 5.253141 -1.844031 2.498503 -2.507277 -10.163595 4.678941 4.621107 -20.976017 -8e-06 4e-06 -21.22628 2.451695 -3.593999 0.0 -7e-06 -0.0 -1.362681 2.240798 -0.746322 -21.334906 0.584909 3.008322 -13.821213 -2e-06 3e-06 -23.887165 -0.249081 -0.839482 -61.555092 2.667542 -1.229241 -0.294024 1.679686 0.833255 -14.218204 0.093216 1.300581 -34.212036 -0.287565 0.967173 -20.033205 0.964536 1.212844 -0.0 1e-06 1e-06 -3.440388 0.788234 0.501656 -15.928183 -3.16731 2.999708 -6.338825 -1e-06 2e-06 -18.12344 3.64818 -4.905669 -5e-06 0.0 -2e-06 8.522423 13.44643 6.707524 49.327927 81.628227 53.551338 -1.153876 55.207142 -1.69755 -22.096088 -40.864635 41.338406 2.24354 -5.255037 -3.180159 14.282894 -0.826593 6.952504 -4e-06 -12.690605 1e-06 16.117064 -18.239683 3.04904 1.665666 -1.955921 -2.878299 4.727799 -4.170588 4.993925 11.020529 5e-06 -1e-06 12.109055 -3.735715 -2.866785 0.0 0.0 -0.0 1.291985 -1.928549 -1.49809 14.800134 0.56747 3.865608 14.242577 -1.341734 -6.660659 19.631973 0.143928 -0.648244 49.563347 -1.177058 -6.5359 0.35303 -1.51115 -0.03194 20.222799 3.684314 2.316631 18.787281 8e-06 -0.0 10.751631 -0.479867 1.397907 1e-06 0.0 0.0 3.273807 0.305947 -0.580111 21.486822 11.830379 2.266133 8.16293 4e-06 1e-06 18.399088 -3.798983 -4.940577 3e-06 0.0 -1e-06 20.364515 26.985334 8.160071 -0.31202 -0.494632 20.860376 -15.333601 13.80209 -5.91912 1.658777 -2.034364 -1.13125 0.0 -0.0 2e-06 -21.822723 -14.263634 6.543004 0.237134 0.480547 22.921295 17.343632 -11.308234 -9.970058 -1.452011 0.772396 -1.702965 0.0 0.0 -1e-06 
